<svg width="28" height="28" viewBox="0 0 28 28" fill="none" xmlns="http://www.w3.org/2000/svg">
<path d="M18.6667 24.5V22.1667C18.6667 20.929 18.175 19.742 17.2999 18.8668C16.4247 17.9917 15.2377 17.5 14 17.5H7.00004C5.76236 17.5 4.57538 17.9917 3.70021 18.8668C2.82504 19.742 2.33337 20.929 2.33337 22.1667V24.5" stroke="#576582" stroke-width="2.33333" stroke-linecap="round" stroke-linejoin="round"/>
<path d="M10.5 12.8333C13.0774 12.8333 15.1667 10.744 15.1667 8.16667C15.1667 5.58934 13.0774 3.5 10.5 3.5C7.92271 3.5 5.83337 5.58934 5.83337 8.16667C5.83337 10.744 7.92271 12.8333 10.5 12.8333Z" stroke="#576582" stroke-width="2.33333" stroke-linecap="round" stroke-linejoin="round"/>
<path d="M25.6666 24.5V22.1667C25.6659 21.1327 25.3217 20.1282 24.6882 19.311C24.0547 18.4938 23.1678 17.9102 22.1666 17.6517" stroke="#576582" stroke-width="2.33333" stroke-linecap="round" stroke-linejoin="round"/>
<path d="M18.6666 3.65167C19.6704 3.90869 20.5602 4.49249 21.1955 5.31103C21.8309 6.12958 22.1758 7.13631 22.1758 8.17251C22.1758 9.2087 21.8309 10.2154 21.1955 11.034C20.5602 11.8525 19.6704 12.4363 18.6666 12.6933" stroke="#576582" stroke-width="2.33333" stroke-linecap="round" stroke-linejoin="round"/>
</svg>
