<svg width="28" height="28" viewBox="0 0 28 28" fill="none" xmlns="http://www.w3.org/2000/svg">
<path d="M18.6667 24.5V22.1667C18.6667 20.929 18.175 19.742 17.2999 18.8668C16.4247 17.9917 15.2377 17.5 14 17.5H7.00004C5.76236 17.5 4.57538 17.9917 3.70021 18.8668C2.82504 19.742 2.33337 20.929 2.33337 22.1667V24.5" stroke="#576582" stroke-width="2.33333" stroke-linecap="round" stroke-linejoin="round"/>
<path d="M10.5 12.8333C13.0774 12.8333 15.1667 10.744 15.1667 8.16667C15.1667 5.58934 13.0774 3.5 10.5 3.5C7.92271 3.5 5.83337 5.58934 5.83337 8.16667C5.83337 10.744 7.92271 12.8333 10.5 12.8333Z" stroke="#576582" stroke-width="2.33333" stroke-linecap="round" stroke-linejoin="round"/>
<path d="M18.6666 12.8333L21 15.1667L25.6666 10.5" stroke="#576582" stroke-width="2.33333" stroke-linecap="round" stroke-linejoin="round"/>
</svg>
