<svg width="30" height="30" viewBox="0 0 30 30" fill="none" xmlns="http://www.w3.org/2000/svg">
<g clip-path="url(#clip0_5_1965)">
<path d="M21.84 17.9775C21.4687 17.7913 19.6425 16.8938 19.3025 16.7688C18.9612 16.645 18.7137 16.5838 18.465 16.9563C18.2187 17.3275 17.5062 18.1638 17.29 18.4113C17.0737 18.66 16.8562 18.69 16.485 18.505C16.1137 18.3175 14.9162 17.9263 13.4975 16.6613C12.3937 15.6763 11.6475 14.46 11.4312 14.0875C11.215 13.7163 11.4087 13.515 11.5937 13.33C11.7612 13.1638 11.9662 12.8963 12.1512 12.68C12.3375 12.4625 12.3987 12.3075 12.5237 12.0588C12.6475 11.8113 12.5862 11.595 12.4925 11.4088C12.3987 11.2225 11.6562 9.39377 11.3475 8.65002C11.045 7.92627 10.7387 8.02502 10.5112 8.01252C10.295 8.00252 10.0475 8.00002 9.79873 8.00002C9.55123 8.00002 9.14873 8.09252 8.80873 8.46502C8.46873 8.83627 7.50873 9.73502 7.50873 11.5638C7.50873 13.3913 8.83998 15.1575 9.02498 15.4063C9.21123 15.6538 11.645 19.4063 15.3712 21.015C16.2575 21.3975 16.9487 21.6263 17.4887 21.7963C18.3787 22.08 19.1887 22.04 19.8275 21.9438C20.5412 21.8375 22.025 21.045 22.335 20.1775C22.645 19.31 22.645 18.5663 22.5512 18.4113C22.4587 18.2563 22.2125 18.1638 21.84 17.9775ZM15.0625 27.2313H15.0575C12.8447 27.2314 10.6726 26.6365 8.76873 25.5088L8.31748 25.2413L3.64123 26.4688L4.88873 21.9088L4.59498 21.4413C3.35803 19.4716 2.70365 17.1921 2.70748 14.8663C2.70873 8.05377 8.25248 2.51127 15.0675 2.51127C18.3675 2.51127 21.47 3.79877 23.8025 6.13377C24.9533 7.27954 25.8655 8.64218 26.4862 10.1428C27.107 11.6435 27.4239 13.2523 27.4187 14.8763C27.415 21.6888 21.8725 27.2313 15.0625 27.2313ZM25.5787 4.36002C24.2015 2.97367 22.5628 1.87444 20.7576 1.12602C18.9524 0.377597 17.0166 -0.00512964 15.0625 1.68897e-05C6.86873 1.68897e-05 0.199978 6.66877 0.196228 14.865C0.196228 17.485 0.879978 20.0425 2.18123 22.2963L0.071228 30L7.95248 27.9325C10.132 29.1199 12.5743 29.7422 15.0562 29.7425H15.0625C23.255 29.7425 29.925 23.0738 29.9287 14.8763C29.9348 12.9229 29.5534 10.9876 28.8068 9.18256C28.0601 7.37747 26.9629 5.73835 25.5787 4.36002Z" fill="#3D4B5E"/>
</g>
<defs>
<clipPath id="clip0_5_1965">
<rect width="30" height="30" fill="white"/>
</clipPath>
</defs>
</svg>
