<svg width="220" height="65" viewBox="0 0 220 65" fill="none" xmlns="http://www.w3.org/2000/svg">
<path d="M84.6171 41.4126C87.6269 49.9515 101.034 52.9497 107.965 46.591C111.796 42.9574 112.981 39.505 113.072 32.2379C113.163 24.2442 111.066 19.3389 106.324 16.0687C102.402 13.4345 94.3764 13.2527 90.1808 15.8867C87.2624 17.6126 86.1672 19.1572 84.4344 23.5173C83.6136 25.7882 83.6137 25.8794 87.5351 25.8794C91.0008 25.8794 91.6396 25.6069 92.0957 23.6993C93.2813 18.9757 102.219 18.9758 104.408 23.6993C106.597 28.6045 105.959 29.5127 99.9396 29.5127H94.4673V34.9631H99.9396C105.047 34.9631 105.412 35.0542 105.412 37.1433C105.412 40.686 102.128 44.0468 98.4797 44.0468C95.1966 44.0467 91.7315 41.5039 91.7312 39.0514C91.7312 38.0522 90.7275 37.6883 88.265 37.6883C83.8873 37.6883 83.4316 38.1426 84.6171 41.4126Z" fill="white" style="fill:white;fill-opacity:1;"/>
<path d="M162.14 42.5027C162.505 32.9647 163.691 32.9651 170.623 42.2306L176.095 49.4972H180.473C182.844 49.4972 184.76 49.3157 184.76 49.0432C184.759 48.7699 181.749 44.5012 178.01 39.5964L171.17 30.6938L177.554 23.2452C181.02 19.1575 183.847 15.3418 183.847 14.8876C183.846 14.4335 182.023 14.0705 179.834 14.0705C175.913 14.0705 175.638 14.2516 169.71 21.3371C166.336 25.334 163.235 28.4229 162.779 28.0596C162.323 27.7867 161.959 24.5162 161.959 20.7921V14.0705H158.948C157.216 14.0706 155.575 14.3424 155.3 14.7056C154.936 14.9781 154.662 22.9726 154.662 32.4199V49.4972H161.867L162.14 42.5027Z" fill="white" style="fill:white;fill-opacity:1;"/>
<path d="M192.785 49.4972C196.069 49.4064 196.343 49.2249 203.73 38.4154L211.209 27.3325V49.4972H218.414L218.688 34.2361C219.053 13.8889 219.052 14.0705 215.405 14.0705C212.668 14.0705 211.938 14.7967 204.733 25.1524L197.073 36.3262L196.526 14.0705H189.32V49.4972H192.785Z" fill="white" style="fill:white;fill-opacity:1;"/>
<path d="M144.904 49.3162L148.735 49.0432L149.008 33.601C149.281 14.2526 149.281 13.8892 144.813 14.2525L141.438 14.5246L140.891 28.6046H126.48L125.933 14.5246L122.559 14.2525C119.732 13.98 119.093 14.2521 119.093 15.6147C119.002 16.5231 119.001 24.4265 119.001 33.147V49.0432L122.741 49.3162L126.389 49.5882V34.9631H140.982V49.5882L144.904 49.3162Z" fill="white" style="fill:white;fill-opacity:1;"/>
<path d="M0 2.47037C0 5.53796 5.06671 15.1016 8.44451 18.6203C15.6446 25.8382 27.2891 30.9809 39.7336 32.244L45.7781 32.9658L38.2225 34.0485C22.6668 36.3943 10.1334 42.6197 5.24449 50.5593C2.84447 54.3487 0.0888896 63.6417 1.06667 64.7244C1.95557 65.5364 17.1557 63.1906 23.1113 61.2959C35.8225 57.1456 42.8448 52.0029 46.8448 43.6122C50.2226 36.5747 50.2226 30.3493 46.7559 23.1315C40.5336 10.41 26.7558 2.74104 7.37784 1.29747C0.533337 0.756126 0 0.846352 0 2.47037Z" fill="white" style="fill:white;fill-opacity:1;"/>
<path d="M4.88905 24.6652C-3.37768 29.2666 -0.533215 41.6272 8.88908 41.6272C13.5113 41.6272 15.6447 40.4543 17.4225 36.9356C21.3336 29.2666 12.4447 20.4247 4.88905 24.6652Z" fill="white" style="fill:white;fill-opacity:1;"/>
<path d="M46.2221 55.3412C43.822 57.9577 43.9998 60.2133 46.6665 62.8297C49.0665 65.356 49.9554 65.5364 52.711 64.0929C55.2888 62.6493 55.9999 61.5666 55.9999 58.6795C55.9999 53.7172 49.6888 51.5518 46.2221 55.3412Z" fill="white" style="fill:white;fill-opacity:1;"/>
</svg>
