<svg width="32" height="36" viewBox="0 0 32 36" fill="none" xmlns="http://www.w3.org/2000/svg">
<path d="M0 0.827229C0 2.55275 2.84562 7.93231 4.74271 9.91158C8.78649 13.9716 15.3264 16.8644 22.3157 17.5749L25.7105 17.9809L21.467 18.5899C12.7304 19.9094 5.69125 23.4112 2.94547 27.8773C1.59754 30.0088 0.0499232 35.2361 0.599079 35.8451C1.09831 36.3019 9.63518 34.9824 12.98 33.9166C20.1191 31.5821 24.063 28.6893 26.3095 23.9695C28.2066 20.0109 28.2066 16.5092 26.2596 12.4491C22.765 5.29328 15.0269 0.979481 4.14363 0.167469C0.299539 -0.137032 0 -0.0862808 0 0.827229Z" fill="#34347C" style="fill:#34347C;fill:color(display-p3 0.2039 0.2039 0.4863);fill-opacity:1;"/>
<path d="M2.74582 13.3119C-1.89704 15.9002 -0.299499 22.853 4.99236 22.853C7.58837 22.853 8.78653 22.1932 9.78499 20.214C11.9816 15.9002 6.98929 10.9266 2.74582 13.3119Z" fill="#E9E15B" style="fill:#E9E15B;fill:color(display-p3 0.9137 0.8824 0.3569);fill-opacity:1;"/>
<path d="M25.9601 30.5671C24.6122 32.0388 24.712 33.3076 26.2097 34.7794C27.5577 36.2004 28.0569 36.3019 29.6045 35.4899C31.0523 34.6779 31.4517 34.0689 31.4517 32.4448C31.4517 29.6536 27.9071 28.4355 25.9601 30.5671Z" fill="#183E35" style="fill:#183E35;fill:color(display-p3 0.0941 0.2431 0.2078);fill-opacity:1;"/>
</svg>
