<svg width="24" height="24" viewBox="0 0 24 24" fill="none" xmlns="http://www.w3.org/2000/svg">
<path d="M6.59998 21V4.8C6.59998 4.32261 6.78962 3.86477 7.12718 3.52721C7.46475 3.18964 7.92259 3 8.39998 3H15.6C16.0774 3 16.5352 3.18964 16.8728 3.52721C17.2103 3.86477 17.4 4.32261 17.4 4.8V21H6.59998Z" stroke="#34347C" style="stroke:#34347C;stroke:color(display-p3 0.2039 0.2039 0.4863);stroke-opacity:1;" stroke-width="1.5" stroke-linecap="round" stroke-linejoin="round"/>
<path d="M6.6 12H4.8C4.32261 12 3.86477 12.1896 3.52721 12.5272C3.18964 12.8648 3 13.3226 3 13.8V19.2C3 19.6774 3.18964 20.1352 3.52721 20.4728C3.86477 20.8104 4.32261 21 4.8 21H6.6" stroke="#34347C" style="stroke:#34347C;stroke:color(display-p3 0.2039 0.2039 0.4863);stroke-opacity:1;" stroke-width="1.5" stroke-linecap="round" stroke-linejoin="round"/>
<path d="M17.4 9.30005H19.2C19.6774 9.30005 20.1353 9.48969 20.4728 9.82726C20.8104 10.1648 21 10.6227 21 11.1V19.2C21 19.6774 20.8104 20.1353 20.4728 20.4728C20.1353 20.8104 19.6774 21 19.2 21H17.4" stroke="#34347C" style="stroke:#34347C;stroke:color(display-p3 0.2039 0.2039 0.4863);stroke-opacity:1;" stroke-width="1.5" stroke-linecap="round" stroke-linejoin="round"/>
<path d="M10.2 6.59998H13.8" stroke="#34347C" style="stroke:#34347C;stroke:color(display-p3 0.2039 0.2039 0.4863);stroke-opacity:1;" stroke-width="1.5" stroke-linecap="round" stroke-linejoin="round"/>
<path d="M10.2 10.2H13.8" stroke="#34347C" style="stroke:#34347C;stroke:color(display-p3 0.2039 0.2039 0.4863);stroke-opacity:1;" stroke-width="1.5" stroke-linecap="round" stroke-linejoin="round"/>
<path d="M10.2 13.8H13.8" stroke="#34347C" style="stroke:#34347C;stroke:color(display-p3 0.2039 0.2039 0.4863);stroke-opacity:1;" stroke-width="1.5" stroke-linecap="round" stroke-linejoin="round"/>
<path d="M10.2 17.4H13.8" stroke="#34347C" style="stroke:#34347C;stroke:color(display-p3 0.2039 0.2039 0.4863);stroke-opacity:1;" stroke-width="1.5" stroke-linecap="round" stroke-linejoin="round"/>
</svg>
