<svg width="48" height="48" viewBox="0 0 48 48" fill="none" xmlns="http://www.w3.org/2000/svg">
<path d="M14.0002 40H34.0002" stroke="white" style="stroke:white;stroke-opacity:1;" stroke-width="2" stroke-linecap="round" stroke-linejoin="round"/>
<path d="M7.71436 11.9425C15.0001 11.9425 24.0001 10 24.0001 10C24.0001 10 32.5715 11.5139 39.8572 11.9425" stroke="white" style="stroke:white;stroke-opacity:1;" stroke-width="2" stroke-linecap="round" stroke-linejoin="round"/>
<path d="M24 6V40" stroke="white" style="stroke:white;stroke-opacity:1;" stroke-width="2" stroke-linecap="round" stroke-linejoin="round"/>
<path d="M18 21.6567L12 11.9424L6 21.6567C6 22.9449 6.63214 24.1803 7.75736 25.0912C8.88258 26.0021 10.4087 26.5138 12 26.5138C13.5913 26.5138 15.1174 26.0021 16.2426 25.0912C17.3679 24.1803 18 22.9449 18 21.6567Z" stroke="white" style="stroke:white;stroke-opacity:1;" stroke-width="2" stroke-linecap="round" stroke-linejoin="round"/>
<path d="M42 21.6567L36 11.9424L30 21.6567C30 22.9449 30.6321 24.1803 31.7574 25.0912C32.8826 26.0021 34.4087 26.5138 36 26.5138C37.5913 26.5138 39.1174 26.0021 40.2426 25.0912C41.3679 24.1803 42 22.9449 42 21.6567Z" stroke="white" style="stroke:white;stroke-opacity:1;" stroke-width="2" stroke-linecap="round" stroke-linejoin="round"/>
</svg>
