<svg width="24" height="24" viewBox="0 0 24 24" fill="none" xmlns="http://www.w3.org/2000/svg">
<path d="M15.6 20V5.77778C15.6 5.30628 15.4104 4.8541 15.0728 4.5207C14.7353 4.1873 14.2774 4 13.8 4H10.2C9.72263 4 9.2648 4.1873 8.92723 4.5207C8.58967 4.8541 8.40002 5.30628 8.40002 5.77778V20" stroke="#34347C" style="stroke:#34347C;stroke:color(display-p3 0.2039 0.2039 0.4863);stroke-opacity:1;" stroke-width="1.5" stroke-linecap="round" stroke-linejoin="round"/>
<path d="M19.2 7.55554H4.8C3.80589 7.55554 3 8.35148 3 9.33332V18.2222C3 19.204 3.80589 20 4.8 20H19.2C20.1941 20 21 19.204 21 18.2222V9.33332C21 8.35148 20.1941 7.55554 19.2 7.55554Z" stroke="#34347C" style="stroke:#34347C;stroke:color(display-p3 0.2039 0.2039 0.4863);stroke-opacity:1;" stroke-width="1.5" stroke-linecap="round" stroke-linejoin="round"/>
</svg>
