<svg width="48" height="48" viewBox="0 0 48 48" fill="none" xmlns="http://www.w3.org/2000/svg">
<path d="M30.9998 26C29.1432 26 27.3628 26.7375 26.05 28.0503C24.7373 29.363 23.9998 31.1435 23.9998 33V35C23.9998 36.8565 24.7373 38.637 26.05 39.9497C27.3628 41.2625 29.1432 42 30.9998 42C32.8563 42 34.6368 41.2625 35.9495 39.9497C37.2623 38.637 37.9998 36.8565 37.9998 35V31.4" stroke="white" style="stroke:white;stroke-opacity:1;" stroke-width="2" stroke-linecap="round" stroke-linejoin="round"/>
<path d="M16.9996 26C18.8562 26 20.6366 26.7375 21.9494 28.0503C23.2621 29.363 23.9996 31.1435 23.9996 33V35C23.9996 36.8565 23.2621 38.637 21.9494 39.9497C20.6366 41.2625 18.8562 42 16.9996 42C15.1431 42 13.3626 41.2625 12.0499 39.9497C10.7371 38.637 9.99963 36.8565 9.99963 35V31.4" stroke="white" style="stroke:white;stroke-opacity:1;" stroke-width="2" stroke-linecap="round" stroke-linejoin="round"/>
<path d="M34.9996 32C36.8561 32 38.6366 31.2625 39.9494 29.9497C41.2621 28.637 41.9996 26.8565 41.9996 25C41.9996 23.1435 41.2621 21.363 39.9494 20.0503C38.6366 18.7375 36.8561 18 34.9996 18H33.9996" stroke="white" style="stroke:white;stroke-opacity:1;" stroke-width="2" stroke-linecap="round" stroke-linejoin="round"/>
<path d="M37.9998 18.6V13C37.9998 11.1435 37.2623 9.36301 35.9495 8.05025C34.6368 6.7375 32.8563 6 30.9998 6C29.1432 6 27.3628 6.7375 26.05 8.05025C24.7373 9.36301 23.9998 11.1435 23.9998 13" stroke="white" style="stroke:white;stroke-opacity:1;" stroke-width="2" stroke-linecap="round" stroke-linejoin="round"/>
<path d="M12.9998 32C11.1432 32 9.36276 31.2625 8.05001 29.9497C6.73725 28.637 5.99976 26.8565 5.99976 25C5.99976 23.1435 6.73725 21.363 8.05001 20.0503C9.36276 18.7375 11.1432 18 12.9998 18H13.9998" stroke="white" style="stroke:white;stroke-opacity:1;" stroke-width="2" stroke-linecap="round" stroke-linejoin="round"/>
<path d="M9.99963 18.6V13C9.99963 11.1435 10.7371 9.36301 12.0499 8.05025C13.3626 6.7375 15.1431 6 16.9996 6C18.8562 6 20.6366 6.7375 21.9494 8.05025C23.2621 9.36301 23.9996 11.1435 23.9996 13V33" stroke="white" style="stroke:white;stroke-opacity:1;" stroke-width="2" stroke-linecap="round" stroke-linejoin="round"/>
</svg>
