<svg width="48" height="48" viewBox="0 0 48 48" fill="none" xmlns="http://www.w3.org/2000/svg">
<path d="M21.9999 24C21.9999 24.5304 22.2106 25.0391 22.5857 25.4142C22.9607 25.7893 23.4694 26 23.9999 26C24.5303 26 25.039 25.7893 25.4141 25.4142C25.7892 25.0391 25.9999 24.5304 25.9999 24C25.9999 23.4696 25.7892 22.9609 25.4141 22.5858C25.039 22.2107 24.5303 22 23.9999 22C23.4694 22 22.9607 22.2107 22.5857 22.5858C22.2106 22.9609 21.9999 23.4696 21.9999 24Z" fill="white" stroke="white" style="fill:white;fill-opacity:1;stroke:white;stroke-opacity:1;" stroke-width="2" stroke-linecap="round" stroke-linejoin="round"/>
<path d="M14.0001 24C14.0001 26.6522 15.0537 29.1957 16.9291 31.0711C18.8044 32.9464 21.348 34 24.0001 34C26.6523 34 29.1958 32.9464 31.0712 31.0711C32.9466 29.1957 34.0001 26.6522 34.0001 24C34.0001 21.3478 32.9466 18.8043 31.0712 16.9289C29.1958 15.0536 26.6523 14 24.0001 14C21.348 14 18.8044 15.0536 16.9291 16.9289C15.0537 18.8043 14.0001 21.3478 14.0001 24Z" stroke="white" style="stroke:white;stroke-opacity:1;" stroke-width="2" stroke-linecap="round" stroke-linejoin="round"/>
<path d="M6 24C6 26.3638 6.46558 28.7044 7.37017 30.8883C8.27475 33.0722 9.60062 35.0565 11.2721 36.7279C12.9435 38.3994 14.9278 39.7252 17.1117 40.6298C19.2956 41.5344 21.6362 42 24 42C26.3638 42 28.7044 41.5344 30.8883 40.6298C33.0722 39.7252 35.0565 38.3994 36.7279 36.7279C38.3994 35.0565 39.7252 33.0722 40.6298 30.8883C41.5344 28.7044 42 26.3638 42 24C42 21.6362 41.5344 19.2956 40.6298 17.1117C39.7252 14.9278 38.3994 12.9435 36.7279 11.2721C35.0565 9.60062 33.0722 8.27475 30.8883 7.37017C28.7044 6.46558 26.3638 6 24 6C21.6362 6 19.2956 6.46558 17.1117 7.37017C14.9278 8.27475 12.9435 9.60062 11.2721 11.2721C9.60062 12.9435 8.27475 14.9278 7.37017 17.1117C6.46558 19.2956 6 21.6362 6 24Z" stroke="white" style="stroke:white;stroke-opacity:1;" stroke-width="2" stroke-linecap="round" stroke-linejoin="round"/>
</svg>
