<svg width="20" height="20" viewBox="0 0 20 20" fill="none" xmlns="http://www.w3.org/2000/svg">
<path d="M1.67106 0.801087C0.148177 1.927 -0.450097 5.07956 0.365732 7.89434C1.34473 11.2721 6.72919 16.9016 10.8083 18.8157C15.7577 21.1238 20 19.9416 20 16.2824C20 15.1565 19.5649 14.5935 18.0964 13.8617C15.5945 12.6232 15.1594 12.6795 13.6365 14.1432C12.3312 15.3817 12.3312 15.3817 10.4276 14.312C8.19768 13.0735 5.31509 9.86469 5.31509 8.68248C5.31509 8.17582 5.58703 7.33138 5.96775 6.71213C6.51164 5.86769 6.51164 5.19215 5.91336 3.50328C4.66243 -0.212236 3.79221 -0.718896 1.67106 0.801087Z" fill="#12161B" style="fill:#12161B;fill:color(display-p3 0.0706 0.0863 0.1059);fill-opacity:1;"/>
</svg>
