<svg width="22" height="18" viewBox="0 0 22 18" fill="none" xmlns="http://www.w3.org/2000/svg">
<path d="M11.0127 3.57737C5.34917 5.66687 0.537699 7.60347 0.287101 7.85829C-0.414573 8.52081 0.0365033 8.77563 3.14391 9.64201L5.90049 10.4574L11.7645 6.78806C14.9721 4.80049 17.7287 3.27159 17.8289 3.37352C17.9292 3.47544 15.8743 5.46301 13.2681 7.75636L8.50671 11.9354V14.5345V17.1846L9.91005 15.8086C10.6618 15.0441 11.564 14.4326 11.8146 14.4326C12.1153 14.4326 13.4685 15.248 14.8218 16.2163C16.175 17.1846 17.5282 18 17.8791 18C18.5807 18 18.5306 18.051 20.4853 9.28526C22.0891 2.04847 22.2896 0.36668 21.6881 0.00993729C21.4375 -0.142954 16.6762 1.48787 11.0127 3.57737Z" fill="#12161B" style="fill:#12161B;fill:color(display-p3 0.0706 0.0863 0.1059);fill-opacity:1;"/>
</svg>
