<svg width="22" height="22" viewBox="0 0 22 22" fill="none" xmlns="http://www.w3.org/2000/svg">
<path d="M7.17431 0.611509C1.60377 2.65956 -1.47992 9.50306 0.708508 14.9479C1.30535 16.4465 1.30535 16.9959 0.708508 19.094C0.310613 20.4427 0.111666 21.6415 0.260876 21.7414C0.36035 21.8913 1.55404 21.7414 2.8472 21.3918C4.63772 20.9422 5.63246 20.9422 7.22404 21.4417C17.5196 24.5388 25.7759 14.1486 20.2054 5.10724C17.5693 0.861273 11.8993 -1.08688 7.17431 0.611509ZM8.46747 7.2552C8.86536 8.10439 8.9151 8.80373 8.56694 9.45311C8.16904 10.2024 8.36799 10.7019 9.61141 11.9008C11.3025 13.5992 11.6506 13.6991 12.9935 12.8499C14.3862 12.0007 16.5248 12.9997 16.1767 14.3984C15.5301 16.8461 11.4517 16.2966 8.31825 13.2995C6.03036 11.1015 5.2843 9.2533 5.78167 7.20525C6.17957 5.55681 7.72141 5.55681 8.46747 7.2552Z" fill="#12161B" style="fill:#12161B;fill:color(display-p3 0.0706 0.0863 0.1059);fill-opacity:1;"/>
</svg>
